{"accessors" : [{"bufferView" : 0, "byteOffset" : 0, "componentType" : 5123, "count" : 1659, "type" : "SCALAR", "max" : [1536], "min" : [0]}, {"bufferView" : 1, "byteOffset" : 0, "componentType" : 5126, "count" : 1537, "type" : "VEC3", "max" : [1.0221019983291626, 1.1163829565048218, 1.1778889894485474], "min" : [-0.977898120880127, -1.1867070198059082, -1.0090759992599487], "name" : "POSITION"}, {"bufferView" : 1, "byteOffset" : 12, "componentType" : 5126, "count" : 1537, "type" : "VEC3", "max" : [1.0000044107437134, 1.0000044107437134, 1.0000044107437134], "min" : [-1.0000044107437134, -1.0000044107437134, -1.0000044107437134], "name" : "NORMAL"}, {"bufferView" : 0, "byteOffset" : 3320, "componentType" : 5123, "count" : 3420, "type" : "SCALAR", "max" : [2963], "min" : [0]}, {"bufferView" : 2, "byteOffset" : 0, "componentType" : 5126, "count" : 2964, "type" : "VEC3", "max" : [0.7296363711357117, 0.8299775123596191, -0.9336583018302917], "min" : [-0.6993446946144104, -0.9078127145767212, -1.0272550582885742], "name" : "POSITION"}, {"bufferView" : 2, "byteOffset" : 12, "componentType" : 5126, "count" : 2964, "type" : "VEC3", "max" : [1.0000044107437134, 1.0000044107437134, 1.0000044107437134], "min" : [-1.0000044107437134, -1.0000044107437134, -1.0000044107437134], "name" : "NORMAL"}, {"bufferView" : 0, "byteOffset" : 10160, "componentType" : 5123, "count" : 93, "type" : "SCALAR", "max" : [84], "min" : [0]}, {"bufferView" : 3, "byteOffset" : 0, "componentType" : 5126, "count" : 85, "type" : "VEC3", "max" : [0.9474809765815735, 1.0583289861679077, 0.10179869830608368], "min" : [-0.9273291230201721, -0.6760293245315552, -0.15092669427394867], "name" : "POSITION"}, {"bufferView" : 3, "byteOffset" : 12, "componentType" : 5126, "count" : 85, "type" : "VEC3", "max" : [1.0000044107437134, 1.0000044107437134, 1.0000044107437134], "min" : [-1.0000044107437134, -1.0000044107437134, 0], "name" : "NORMAL"}, {"bufferView" : 0, "byteOffset" : 10348, "componentType" : 5123, "count" : 3528, "type" : "SCALAR", "max" : [2988], "min" : [0]}, {"bufferView" : 4, "byteOffset" : 0, "componentType" : 5126, "count" : 2989, "type" : "VEC3", "max" : [0.9800031781196594, -0.9647693037986755, -0.1974772959947586], "min" : [-0.9342901110649109, -1.162822961807251, -0.22463470697402954], "name" : "POSITION"}, {"bufferView" : 4, "byteOffset" : 12, "componentType" : 5126, "count" : 2989, "type" : "VEC3", "max" : [1.0000044107437134, 1.0000044107437134, 1.0000044107437134], "min" : [-1.0000044107437134, -1.0000044107437134, -1.0000044107437134], "name" : "NORMAL"}, {"bufferView" : 0, "byteOffset" : 17404, "componentType" : 5123, "count" : 1260, "type" : "SCALAR", "max" : [1119], "min" : [0]}, {"bufferView" : 5, "byteOffset" : 0, "componentType" : 5126, "count" : 1120, "type" : "VEC3", "max" : [0.9533280730247498, -0.9637659192085266, -0.18471300601959229], "min" : [-0.906699001789093, -1.0963259935379028, -0.19794489443302155], "name" : "POSITION"}, {"bufferView" : 5, "byteOffset" : 12, "componentType" : 5126, "count" : 1120, "type" : "VEC3", "max" : [1.0000044107437134, 0.9631226062774658, 1.0000044107437134], "min" : [-1.0000044107437134, -0.7281145453453064, -1.0000044107437134], "name" : "NORMAL"}], "asset" : {"generator" : "Aspose.3D 23.6.0", "version" : "2.0"}, "buffers" : [{"uri" : "data:application/octet-stream;base64,", "byteLength" : 258988}], "bufferViews" : [{"buffer" : 0, "byteOffset" : 0, "byteLength" : 19924, "target" : 34963}, {"buffer" : 0, "byteOffset" : 19928, "byteLength" : 39816, "byteStride" : 24, "target" : 34962}, {"buffer" : 0, "byteOffset" : 59748, "byteLength" : 82080, "byteStride" : 24, "target" : 34962}, {"buffer" : 0, "byteOffset" : 141832, "byteLength" : 2232, "byteStride" : 24, "target" : 34962}, {"buffer" : 0, "byteOffset" : 144068, "byteLength" : 84672, "byteStride" : 24, "target" : 34962}, {"buffer" : 0, "byteOffset" : 228744, "byteLength" : 30240, "byteStride" : 24, "target" : 34962}], "materials" : [{"name" : "Black", "pbrMetallicRoughness" : {"baseColorFactor" : [0.02037908, 0.02037908, 0.02037908, 1], "metallicFactor" : 0, "roughnessFactor" : 0}, "emissiveFactor" : [0, 0, 0], "alphaMode" : "OPAQUE", "doubleSided" : false}, {"name" : "Gold", "pbrMetallicRoughness" : {"baseColorFactor" : [0.64, 0.3564561, 0.02769873, 1], "metallicFactor" : 0, "roughnessFactor" : 0}, "emissiveFactor" : [0, 0, 0], "alphaMode" : "OPAQUE", "doubleSided" : false}, {"name" : "Wood", "pbrMetallicRoughness" : {"baseColorFactor" : [0.3144919, 0.09994156, 0.03561294, 1], "metallicFactor" : 0, "roughnessFactor" : 0}, "emissiveFactor" : [0, 0, 0], "alphaMode" : "OPAQUE", "doubleSided" : false}, {"name" : "Material_002", "pbrMetallicRoughness" : {"baseColorFactor" : [0.64, 0.64, 0.64, 1], "metallicFactor" : 0, "roughnessFactor" : 0}, "emissiveFactor" : [0, 0, 0], "alphaMode" : "OPAQUE", "doubleSided" : false}, {"name" : "Material_003", "pbrMetallicRoughness" : {"baseColorFactor" : [0, 0, 0, 1], "metallicFactor" : 0, "roughnessFactor" : 0}, "emissiveFactor" : [0, 0, 0], "alphaMode" : "OPAQUE", "doubleSided" : false}], "meshes" : [{"primitives" : [{"attributes" : {"POSITION" : 1, "NORMAL" : 2}, "indices" : 0, "material" : 0, "mode" : 4}, {"attributes" : {"POSITION" : 4, "NORMAL" : 5}, "indices" : 3, "material" : 1, "mode" : 4}, {"attributes" : {"POSITION" : 7, "NORMAL" : 8}, "indices" : 6, "material" : 2, "mode" : 4}, {"attributes" : {"POSITION" : 10, "NORMAL" : 11}, "indices" : 9, "material" : 3, "mode" : 4}, {"attributes" : {"POSITION" : 13, "NORMAL" : 14}, "indices" : 12, "material" : 4, "mode" : 4}], "name" : ""}], "nodes" : [{"matrix" : [1, 0, 0, 0, 0, 1, 0, 0, 0, 0, 1, 0, 0, 0, 1.027259, 1], "mesh" : 0, "name" : "Cube_002"}], "scene" : 0, "scenes" : [{"nodes" : [0]}]}